<?xml version="1.0" encoding="iso-8859-1"?>
<!-- Generator: Adobe Illustrator 16.0.0, SVG Export Plug-In . SVG Version: 6.00 Build 0)  -->
<!DOCTYPE svg PUBLIC "-//W3C//DTD SVG 1.1//EN" "http://www.w3.org/Graphics/SVG/1.1/DTD/svg11.dtd">
<svg version="1.1" id="Capa_1" xmlns="http://www.w3.org/2000/svg" xmlns:xlink="http://www.w3.org/1999/xlink" x="0px" y="0px"
	 width="313.01px" height="313.01px" viewBox="0 0 313.01 313.01" style="enable-background:new 0 0 313.01 313.01;"
	 xml:space="preserve">
<g>
	<g>
		<path d="M179.311,106.149c-14.175,0-25.662,11.487-25.662,25.646c0,14.168,11.487,25.641,25.662,25.641
			c14.153,0,25.641-11.472,25.641-25.641C204.952,117.642,193.464,106.149,179.311,106.149z"/>
		<path d="M310.551,152.582c-45.708-64.165-96.173-96.705-149.996-96.705c-90.826,0-155.524,92.939-158.242,96.899
			c-3.377,4.918-3.026,11.5,0.853,16.039c49.843,58.607,102.172,88.318,155.518,88.318c90.9,0,149.628-85.856,152.071-89.507
			C313.831,163.057,313.758,157.07,310.551,152.582z M156.501,220.15c-35.152,0-63.647-28.492-63.647-63.645
			c0-35.155,28.496-63.651,63.647-63.651c35.155,0,63.648,28.496,63.648,63.651C220.15,191.658,191.657,220.15,156.501,220.15z"/>
	</g>
</g>
<g>
</g>
<g>
</g>
<g>
</g>
<g>
</g>
<g>
</g>
<g>
</g>
<g>
</g>
<g>
</g>
<g>
</g>
<g>
</g>
<g>
</g>
<g>
</g>
<g>
</g>
<g>
</g>
<g>
</g>
</svg>
