<svg height="511pt" viewBox="0 -115 511.99875 511" width="511pt" xmlns="http://www.w3.org/2000/svg"><path d="m508.351562 130.699219c-1.148437-1.332031-28.652343-32.96875-73.203124-64.894531-26.28125-18.828126-53.09375-33.859376-79.695313-44.671876-33.6875-13.691406-67.148437-20.632812-99.453125-20.632812s-65.769531 6.941406-99.457031 20.632812c-26.601563 10.8125-53.414063 25.84375-79.691407 44.671876-44.554687 31.925781-72.058593 63.5625-73.207031 64.894531-4.859375 5.628906-4.859375 13.972656 0 19.601562 1.148438 1.332031 28.652344 32.96875 73.207031 64.890625 26.277344 18.832032 53.089844 33.863282 79.691407 44.671875 33.6875 13.695313 67.152343 20.636719 99.457031 20.636719s65.765625-6.941406 99.453125-20.636719c26.605469-10.808593 53.414063-25.839843 79.695313-44.671875 44.550781-31.921875 72.054687-63.558594 73.203124-64.890625 4.863282-5.628906 4.863282-13.972656 0-19.601562zm-142.351562 9.800781c0 60.652344-49.347656 110-110 110-1.0625 0-2.121094-.03125-3.179688-.050781-59.191406-1.6875-106.820312-50.359375-106.820312-109.949219 0-60.65625 49.34375-110 110-110 1.0625 0 2.121094.03125 3.179688.046875 59.1875 1.691406 106.820312 50.363281 106.820312 109.953125zm-330.453125 0c11.175781-11.40625 31.980469-31.175781 59.367187-50.730469 15.792969-11.277343 30.953126-20.480469 45.386719-28-15.324219 22.449219-24.300781 49.558594-24.300781 78.730469 0 29.15625 8.972656 56.25 24.285156 78.695312-17.144531-8.941406-32.46875-18.753906-45.371094-27.964843-27.386718-19.554688-48.195312-39.328125-59.367187-50.730469zm381.535156 50.730469c-15.796875 11.277343-30.960937 20.484375-45.394531 28.003906 15.328125-22.449219 24.3125-49.558594 24.3125-78.734375 0-29.15625-8.96875-56.25-24.277344-78.691406 17.140625 8.9375 32.460938 18.75 45.359375 27.960937 27.386719 19.554688 48.191407 39.324219 59.367188 50.730469-11.175781 11.40625-31.980469 31.175781-59.367188 50.730469zm0 0"/><path d="m211 140.480469c0 24.8125 20.1875 45 45 45s45-20.1875 45-45-20.1875-45-45-45c-24.816406 0-45 20.1875-45 45zm60 0c0 8.269531-6.726562 15-15 15s-15-6.730469-15-15 6.726562-15 15-15c8.269531 0 15 6.730469 15 15zm0 0"/></svg>