<?xml version="1.0" encoding="utf-8"?>
<!-- Generator: Adobe Illustrator 19.2.0, SVG Export Plug-In . SVG Version: 6.00 Build 0)  -->
<svg version="1.1" id="Capa_1" xmlns="http://www.w3.org/2000/svg" xmlns:xlink="http://www.w3.org/1999/xlink" x="0px" y="0px"
	 viewBox="0 0 432.5 432.5" style="enable-background:new 0 0 432.5 432.5;" xml:space="preserve">
<g>
	<path d="M10.6,229.8L214.7,26c7.2-7.2,16.9-13.4,29.1-18.4C256,2.5,267.1,0,277.2,0H396c9.9,0,18.5,3.6,25.7,10.8
		c7.2,7.2,10.8,15.8,10.8,25.7v118.8c0,10.1-2.5,21.2-7.6,33.4c-5,12.2-11.2,21.8-18.4,28.8L202.4,422c-7,7-15.6,10.6-25.7,10.6
		c-9.9,0-18.6-3.5-26-10.6L10.6,281.5c-7-7-10.6-15.6-10.6-25.7C0,245.9,3.5,237.3,10.6,229.8z M315.3,117.2
		c7.1,7.1,15.8,10.7,25.8,10.7c10.1,0,18.7-3.6,25.8-10.7c7.1-7.1,10.7-15.7,10.7-25.8c0-10.1-3.6-18.7-10.7-25.8
		c-7.1-7.1-15.8-10.7-25.8-10.7c-10.1,0-18.7,3.6-25.8,10.7c-7.1,7.1-10.7,15.7-10.7,25.8S308.2,110.1,315.3,117.2z"/>
</g>
</svg>
