<?xml version="1.0" encoding="utf-8"?>
<!-- Generator: Adobe Illustrator 19.2.0, SVG Export Plug-In . SVG Version: 6.00 Build 0)  -->
<svg version="1.1" xmlns="http://www.w3.org/2000/svg" xmlns:xlink="http://www.w3.org/1999/xlink" x="0px" y="0px"
	 viewBox="0 0 512 450" style="enable-background:new 0 0 512 450;" xml:space="preserve">
<style type="text/css">
	.st0{display:none;}
</style>
<g id="Layer_1">
	<path class="st0" d="M256,180c-24.8,0-45,20.2-45,45s20.2,45,45,45s45-20.2,45-45S280.8,180,256,180z M266.6,235.6
		c-5.9,5.9-15.4,5.9-21.2,0s-5.9-15.4,0-21.2c5.9-5.9,15.4-5.9,21.2,0C272.5,220.2,272.5,229.7,266.6,235.6z"/>
	<path class="st0" d="M469.1,234.7c4.7-5.6,4.7-13.8,0-19.4C437.4,177.6,353,90,256,90c-96.6,0-181.2,87.7-213.1,125.3
		c-4.7,5.6-4.7,13.8,0,19.4C74.6,272.4,159,360,256,360C352.6,360,437.2,272.3,469.1,234.7z M256,300c-41.4,0-75-33.6-75-75
		s33.6-75,75-75s75,33.6,75,75S297.4,300,256,300z"/>
	<path d="M15,120c8.3,0,15-6.7,15-15V30h75c8.3,0,15-6.7,15-15s-6.7-15-15-15H15C6.7,0,0,6.7,0,15v90C0,113.3,6.7,120,15,120z"/>
	<path d="M497,0h-90c-8.3,0-15,6.7-15,15s6.7,15,15,15h75v75c0,8.3,6.7,15,15,15s15-6.7,15-15V15C512,6.7,505.3,0,497,0z"/>
	<path d="M497,330c-8.3,0-15,6.7-15,15v75h-75c-8.3,0-15,6.7-15,15s6.7,15,15,15h90c8.3,0,15-6.7,15-15v-90
		C512,336.7,505.3,330,497,330z"/>
	<path d="M105,420H30v-75c0-8.3-6.7-15-15-15s-15,6.7-15,15v90c0,8.3,6.7,15,15,15h90c8.3,0,15-6.7,15-15S113.3,420,105,420z"/>
</g>
<g id="Layer_2">
	<g>
		<path d="M263.9,70.3l42.7,101l109.3,9.4c7.6,0.7,10.7,10.1,4.9,15.1l-82.9,71.8l24.8,106.8c1.7,7.4-6.3,13.3-12.8,9.3L256,327.1
			l-93.9,56.6c-6.5,3.9-14.6-1.9-12.8-9.3l24.8-106.8l-82.9-71.8c-5.8-5-2.7-14.4,4.9-15.1l109.3-9.4l42.7-101
			C251,63.2,261,63.2,263.9,70.3z"/>
	</g>
</g>
</svg>
