<svg height="512pt" viewBox="0 -31 512 512" width="512pt" xmlns="http://www.w3.org/2000/svg"><path d="m256 180c-24.8125 0-45 20.1875-45 45s20.1875 45 45 45 45-20.1875 45-45-20.1875-45-45-45zm10.605469 55.605469c-5.855469 5.859375-15.351563 5.859375-21.210938 0s-5.859375-15.355469 0-21.214844c5.859375-5.855469 15.355469-5.855469 21.210938 0 5.859375 5.859375 5.859375 15.355469 0 21.214844zm0 0"/><path d="m469.136719 234.652344c4.714843-5.582032 4.730469-13.753906.011719-19.351563-31.769532-37.671875-116.160157-125.300781-213.148438-125.300781-96.648438 0-181.246094 87.65625-213.136719 125.347656-4.714843 5.582032-4.730469 13.753906-.011719 19.351563 31.769532 37.671875 116.160157 125.300781 213.148438 125.300781 96.648438 0 181.246094-87.65625 213.136719-125.347656zm-213.136719 65.347656c-41.351562 0-75-33.648438-75-75s33.648438-75 75-75 75 33.648438 75 75-33.648438 75-75 75zm0 0"/><path d="m15 120c8.289062 0 15-6.710938 15-15v-75h75c8.289062 0 15-6.710938 15-15s-6.710938-15-15-15h-90c-8.289062 0-15 6.710938-15 15v90c0 8.289062 6.710938 15 15 15zm0 0"/><path d="m497 0h-90c-8.289062 0-15 6.710938-15 15s6.710938 15 15 15h75v75c0 8.289062 6.710938 15 15 15s15-6.710938 15-15v-90c0-8.289062-6.710938-15-15-15zm0 0"/><path d="m497 330c-8.289062 0-15 6.710938-15 15v75h-75c-8.289062 0-15 6.710938-15 15s6.710938 15 15 15h90c8.289062 0 15-6.710938 15-15v-90c0-8.289062-6.710938-15-15-15zm0 0"/><path d="m105 420h-75v-75c0-8.289062-6.710938-15-15-15s-15 6.710938-15 15v90c0 8.289062 6.710938 15 15 15h90c8.289062 0 15-6.710938 15-15s-6.710938-15-15-15zm0 0"/></svg>